<svg width="104" height="116" viewBox="0 0 104 116" fill="none" xmlns="http://www.w3.org/2000/svg">
<path fill-rule="evenodd" clip-rule="evenodd" d="M-9 6C-7.34315 6 -6 4.65685 -6 3C-6 1.34315 -7.34315 0 -9 0C-10.6569 0 -12 1.34315 -12 3C-12 4.65685 -10.6569 6 -9 6ZM-9 50C-7.34315 50 -6 48.6569 -6 47C-6 45.3431 -7.34315 44 -9 44C-10.6569 44 -12 45.3431 -12 47C-12 48.6569 -10.6569 50 -9 50ZM-6 91C-6 92.6569 -7.34315 94 -9 94C-10.6569 94 -12 92.6569 -12 91C-12 89.3431 -10.6569 88 -9 88C-7.34315 88 -6 89.3431 -6 91ZM-9 28C-7.34315 28 -6 26.6569 -6 25C-6 23.3431 -7.34315 22 -9 22C-10.6569 22 -12 23.3431 -12 25C-12 26.6569 -10.6569 28 -9 28ZM-6 69C-6 70.6569 -7.34315 72 -9 72C-10.6569 72 -12 70.6569 -12 69C-12 67.3431 -10.6569 66 -9 66C-7.34315 66 -6 67.3431 -6 69ZM-9 116C-7.34315 116 -6 114.657 -6 113C-6 111.343 -7.34315 110 -9 110C-10.6569 110 -12 111.343 -12 113C-12 114.657 -10.6569 116 -9 116ZM82 3C82 4.65685 80.6569 6 79 6C77.3431 6 76 4.65685 76 3C76 1.34315 77.3431 0 79 0C80.6569 0 82 1.34315 82 3ZM79 50C80.6569 50 82 48.6569 82 47C82 45.3431 80.6569 44 79 44C77.3431 44 76 45.3431 76 47C76 48.6569 77.3431 50 79 50ZM82 91C82 92.6569 80.6569 94 79 94C77.3431 94 76 92.6569 76 91C76 89.3431 77.3431 88 79 88C80.6569 88 82 89.3431 82 91ZM79 28C80.6569 28 82 26.6569 82 25C82 23.3431 80.6569 22 79 22C77.3431 22 76 23.3431 76 25C76 26.6569 77.3431 28 79 28ZM82 69C82 70.6569 80.6569 72 79 72C77.3431 72 76 70.6569 76 69C76 67.3431 77.3431 66 79 66C80.6569 66 82 67.3431 82 69ZM79 116C80.6569 116 82 114.657 82 113C82 111.343 80.6569 110 79 110C77.3431 110 76 111.343 76 113C76 114.657 77.3431 116 79 116ZM38 3C38 4.65685 36.6569 6 35 6C33.3431 6 32 4.65685 32 3C32 1.34315 33.3431 0 35 0C36.6569 0 38 1.34315 38 3ZM35 50C36.6569 50 38 48.6569 38 47C38 45.3431 36.6569 44 35 44C33.3431 44 32 45.3431 32 47C32 48.6569 33.3431 50 35 50ZM38 91C38 92.6569 36.6569 94 35 94C33.3431 94 32 92.6569 32 91C32 89.3431 33.3431 88 35 88C36.6569 88 38 89.3431 38 91ZM35 28C36.6569 28 38 26.6569 38 25C38 23.3431 36.6569 22 35 22C33.3431 22 32 23.3431 32 25C32 26.6569 33.3431 28 35 28ZM38 69C38 70.6569 36.6569 72 35 72C33.3431 72 32 70.6569 32 69C32 67.3431 33.3431 66 35 66C36.6569 66 38 67.3431 38 69ZM35 116C36.6569 116 38 114.657 38 113C38 111.343 36.6569 110 35 110C33.3431 110 32 111.343 32 113C32 114.657 33.3431 116 35 116ZM16 3C16 4.65685 14.6569 6 13 6C11.3431 6 10 4.65685 10 3C10 1.34315 11.3431 0 13 0C14.6569 0 16 1.34315 16 3ZM13 50C14.6569 50 16 48.6569 16 47C16 45.3431 14.6569 44 13 44C11.3431 44 10 45.3431 10 47C10 48.6569 11.3431 50 13 50ZM16 91C16 92.6569 14.6569 94 13 94C11.3431 94 10 92.6569 10 91C10 89.3431 11.3431 88 13 88C14.6569 88 16 89.3431 16 91ZM13 28C14.6569 28 16 26.6569 16 25C16 23.3431 14.6569 22 13 22C11.3431 22 10 23.3431 10 25C10 26.6569 11.3431 28 13 28ZM16 69C16 70.6569 14.6569 72 13 72C11.3431 72 10 70.6569 10 69C10 67.3431 11.3431 66 13 66C14.6569 66 16 67.3431 16 69ZM13 116C14.6569 116 16 114.657 16 113C16 111.343 14.6569 110 13 110C11.3431 110 10 111.343 10 113C10 114.657 11.3431 116 13 116ZM104 3C104 4.65685 102.657 6 101 6C99.3431 6 98 4.65685 98 3C98 1.34315 99.3431 0 101 0C102.657 0 104 1.34315 104 3ZM101 50C102.657 50 104 48.6569 104 47C104 45.3431 102.657 44 101 44C99.3431 44 98 45.3431 98 47C98 48.6569 99.3431 50 101 50ZM104 91C104 92.6569 102.657 94 101 94C99.3431 94 98 92.6569 98 91C98 89.3431 99.3431 88 101 88C102.657 88 104 89.3431 104 91ZM101 28C102.657 28 104 26.6569 104 25C104 23.3431 102.657 22 101 22C99.3431 22 98 23.3431 98 25C98 26.6569 99.3431 28 101 28ZM104 69C104 70.6569 102.657 72 101 72C99.3431 72 98 70.6569 98 69C98 67.3431 99.3431 66 101 66C102.657 66 104 67.3431 104 69ZM101 116C102.657 116 104 114.657 104 113C104 111.343 102.657 110 101 110C99.3431 110 98 111.343 98 113C98 114.657 99.3431 116 101 116ZM60 3C60 4.65685 58.6569 6 57 6C55.3431 6 54 4.65685 54 3C54 1.34315 55.3431 0 57 0C58.6569 0 60 1.34315 60 3ZM57 50C58.6569 50 60 48.6569 60 47C60 45.3431 58.6569 44 57 44C55.3431 44 54 45.3431 54 47C54 48.6569 55.3431 50 57 50ZM60 91C60 92.6569 58.6569 94 57 94C55.3431 94 54 92.6569 54 91C54 89.3431 55.3431 88 57 88C58.6569 88 60 89.3431 60 91ZM57 28C58.6569 28 60 26.6569 60 25C60 23.3431 58.6569 22 57 22C55.3431 22 54 23.3431 54 25C54 26.6569 55.3431 28 57 28ZM60 69C60 70.6569 58.6569 72 57 72C55.3431 72 54 70.6569 54 69C54 67.3431 55.3431 66 57 66C58.6569 66 60 67.3431 60 69ZM57 116C58.6569 116 60 114.657 60 113C60 111.343 58.6569 110 57 110C55.3431 110 54 111.343 54 113C54 114.657 55.3431 116 57 116Z" fill="#FBCB9D"/>
</svg>
