<svg width="56" height="56" viewBox="0 0 56 56" fill="none" xmlns="http://www.w3.org/2000/svg">
<rect width="56" height="56" rx="8" fill="#169BFF"/>
<path d="M28.0003 32.9983C28.5528 32.9983 29.0007 32.5506 29.0007 31.9983C29.0007 31.4461 28.5528 30.9983 28.0003 30.9983C27.4479 30.9983 27 31.4461 27 31.9983C27 32.5506 27.4479 32.9983 28.0003 32.9983Z" fill="white"/>
<path d="M27 30H29V29C29 29.0024 29.0047 28.9972 29.0154 28.9854C29.0417 28.9565 29.1039 28.888 29.2205 28.7955C29.3207 28.716 29.3517 28.6954 29.6048 28.535C30.4661 27.989 31 27.0396 31 26C31 24.3431 29.6569 23 28 23C26.3431 23 25 24.3431 25 26H27C27 25.4477 27.4477 25 28 25C28.5523 25 29 25.4477 29 26C29 26.3473 28.8225 26.6629 28.534 26.8458C28.2102 27.0511 28.1564 27.0867 27.9775 27.2286C27.3827 27.7005 27 28.2627 27 29V30Z" fill="white"/>
<path fill-rule="evenodd" clip-rule="evenodd" d="M28 38C29.7246 38 31.387 37.562 32.8595 36.7418L37.0947 37.0947L36.7418 32.8595C37.562 31.387 38 29.7246 38 28C38 22.4772 33.5228 18 28 18C22.4772 18 18 22.4772 18 28C18 33.5228 22.4772 38 28 38ZM32.115 34.8621L32.3916 34.6958L34.9053 34.9053L34.6958 32.3916L34.8621 32.115C35.603 30.8824 36 29.4715 36 28C36 23.5817 32.4183 20 28 20C23.5817 20 20 23.5817 20 28C20 32.4183 23.5817 36 28 36C29.4715 36 30.8824 35.603 32.115 34.8621Z" fill="white"/>
</svg>
