<svg width="56" height="56" viewBox="0 0 56 56" fill="none" xmlns="http://www.w3.org/2000/svg">
<rect width="56" height="56" rx="8" fill="#F58417"/>
<path fill-rule="evenodd" clip-rule="evenodd" d="M23 32C23.55 32 24 32.45 24 33C24 34.1 23.1 35 22 35C21.83 35 21.67 34.98 21.5 34.95C21.81 34.4 22 33.74 22 33C22 32.45 22.45 32 23 32ZM34.67 19C34.41 19 34.16 19.1 33.96 19.29L25 28.25L27.75 31L36.71 22.04C37.1 21.65 37.1 21.02 36.71 20.63L35.37 19.29C35.17 19.09 34.92 19 34.67 19ZM23 30C21.34 30 20 31.34 20 33C20 34.31 18.84 35 18 35C18.92 36.22 20.49 37 22 37C24.21 37 26 35.21 26 33C26 31.34 24.66 30 23 30Z" fill="white"/>
</svg>
