<svg width="56" height="56" viewBox="0 0 56 56" fill="none" xmlns="http://www.w3.org/2000/svg">
<rect width="56" height="56" rx="8" fill="#43CC74"/>
<path fill-rule="evenodd" clip-rule="evenodd" d="M34 29V36H20V22H25.02C25.07 21.29 25.24 20.62 25.5 20H20C18.9 20 18 20.9 18 22V36C18 37.1 18.9 38 20 38H34C35.1 38 36 37.1 36 36V31L34 29ZM35.3 24.89C35.74 24.19 36 23.38 36 22.5C36 20.01 33.99 18 31.5 18C29.01 18 27 20.01 27 22.5C27 24.99 29.01 27 31.49 27C32.37 27 33.19 26.74 33.88 26.3L37 29.42L38.42 28L35.3 24.89ZM31.5 25C30.12 25 29 23.88 29 22.5C29 21.12 30.12 20 31.5 20C32.88 20 34 21.12 34 22.5C34 23.88 32.88 25 31.5 25Z" fill="white"/>
</svg>
