<svg width="56" height="56" viewBox="0 0 56 56" fill="none" xmlns="http://www.w3.org/2000/svg">
<rect width="56" height="56" rx="8" fill="#F7473E"/>
<path d="M31.2929 24.2929L27 28.5858L24.7071 26.2929L23.2929 27.7071L27 31.4142L32.7071 25.7071L31.2929 24.2929Z" fill="white"/>
<path fill-rule="evenodd" clip-rule="evenodd" d="M28 39C22 36.3271 19 33.6604 19 31V21C19 20.2324 19.2946 20.054 20.1099 19.5603C20.3568 19.4108 20.6514 19.2324 21 19C21.1618 18.8921 24.5632 17 28 17C30.9952 17 33.5 18 35 19C35.3486 19.2324 35.6432 19.4108 35.8901 19.5603C36.7054 20.054 37 20.2324 37 21C37.0197 21.2172 37.01 25.8371 37.0038 28.7947C37.0017 29.8033 37 30.6186 37 31C37 33.6667 34 36.3333 28 39ZM35 31C35 30.7697 35.0006 30.3838 35.0018 29.7547L35.0059 27.8014C35.0072 27.1695 35.0082 26.6272 35.009 26.1098C35.0127 23.8776 35.0117 21.9618 35.0096 21.3693L34.8722 21.284C34.5488 21.0834 34.1274 20.8219 33.8906 20.6641C32.4143 19.6799 30.2602 19 28 19C25.8381 19 23.0286 20.0513 22.1094 20.6641C21.8726 20.8219 21.4512 21.0834 21.1278 21.284L21 21.3633V31C21 32.5085 23.2291 34.5687 28.0009 36.802C32.7722 34.5737 35 32.5142 35 31Z" fill="white"/>
</svg>
